<?xml version="1.0" encoding="utf-8"?>
<svg version="1.1" xmlns:xlink="http://www.w3.org/1999/xlink" width="15px" height="15px" viewBox="359 377  15 15" xmlns="http://www.w3.org/2000/svg">
  <path d="M 360 380  A 2 2 0 0 1 362 378 L 371 378  A 2 2 0 0 1 373 380 L 373 389  A 2 2 0 0 1 371 391 L 362 391  A 2 2 0 0 1 360 389 L 360 380  Z " fill-rule="nonzero" fill="#ffffff" stroke="none" />
  <path d="M 359.5 380  A 2.5 2.5 0 0 1 362 377.5 L 371 377.5  A 2.5 2.5 0 0 1 373.5 380 L 373.5 389  A 2.5 2.5 0 0 1 371 391.5 L 362 391.5  A 2.5 2.5 0 0 1 359.5 389 L 359.5 380  Z " stroke-width="1" stroke="#000000" fill="none" stroke-opacity="0.34901960784313724" />
</svg>