<?xml version="1.0" encoding="utf-8"?>
<svg version="1.1" xmlns:xlink="http://www.w3.org/1999/xlink" width="207px" height="40px" xmlns="http://www.w3.org/2000/svg">
  <defs>
    <mask fill="white" id="clip88">
      <path d="M 0 34  L 0 6  C 0 2.6400000000000006  2.6400000000000006 0  6 0  L 174.33333333333334 0  L 201 0  C 204.36 0  207 2.6400000000000006  207 6  L 207 34  C 207 37.36  204.36 40  201 40  L 6 40  C 2.6400000000000006 40  0 37.36  0 34  Z " fill-rule="evenodd" />
    </mask>
  </defs>
  <g transform="matrix(1 0 0 1 -24 -22 )">
    <path d="M 0 34  L 0 6  C 0 2.6400000000000006  2.6400000000000006 0  6 0  L 174.33333333333334 0  L 201 0  C 204.36 0  207 2.6400000000000006  207 6  L 207 34  C 207 37.36  204.36 40  201 40  L 6 40  C 2.6400000000000006 40  0 37.36  0 34  Z " fill-rule="nonzero" fill="#ffffff" stroke="none" transform="matrix(1 0 0 1 24 22 )" />
    <path d="M 0 34  L 0 6  C 0 2.6400000000000006  2.6400000000000006 0  6 0  L 174.33333333333334 0  L 201 0  C 204.36 0  207 2.6400000000000006  207 6  L 207 34  C 207 37.36  204.36 40  201 40  L 6 40  C 2.6400000000000006 40  0 37.36  0 34  Z " stroke-width="2" stroke="#dce0e5" fill="none" transform="matrix(1 0 0 1 24 22 )" mask="url(#clip88)" />
  </g>
</svg>