<?xml version="1.0" encoding="utf-8"?>
<svg version="1.1" xmlns:xlink="http://www.w3.org/1999/xlink" width="19px" height="19px" viewBox="902 263  19 19" xmlns="http://www.w3.org/2000/svg">
  <path d="M 911.5 263  C 916.82 263  921 267.18  921 272.5  C 921 277.82  916.82 282  911.5 282  C 906.18 282  902 277.82  902 272.5  C 902 267.18  906.18 263  911.5 263  Z " fill-rule="nonzero" fill="#f0f0f0" stroke="none" />
  <path d="M 911.5 263.5  C 916.54 263.5  920.5 267.46  920.5 272.5  C 920.5 277.54  916.54 281.5  911.5 281.5  C 906.46 281.5  902.5 277.54  902.5 272.5  C 902.5 267.46  906.46 263.5  911.5 263.5  Z " stroke-width="1" stroke="#0066ff" fill="none" />
  <path d="M 911.5 277.25  C 908.84 277.25  906.75 275.16  906.75 272.5  C 906.75 269.84  908.84 267.75  911.5 267.75  C 914.16 267.75  916.25 269.84  916.25 272.5  C 916.25 275.16  914.16 277.25  911.5 277.25  " fill-rule="nonzero" fill="#0066ff" stroke="none" />
</svg>