<?xml version="1.0" encoding="utf-8"?>
<svg version="1.1" xmlns:xlink="http://www.w3.org/1999/xlink" width="19px" height="19px" viewBox="902 190  19 19" xmlns="http://www.w3.org/2000/svg">
  <path d="M 911.5 190  C 916.82 190  921 194.18  921 199.5  C 921 204.82  916.82 209  911.5 209  C 906.18 209  902 204.82  902 199.5  C 902 194.18  906.18 190  911.5 190  Z " fill-rule="nonzero" fill="#ffffff" stroke="none" />
  <path d="M 911.5 190.5  C 916.54 190.5  920.5 194.46  920.5 199.5  C 920.5 204.54  916.54 208.5  911.5 208.5  C 906.46 208.5  902.5 204.54  902.5 199.5  C 902.5 194.46  906.46 190.5  911.5 190.5  Z " stroke-width="1" stroke="#0066ff" fill="none" />
  <path d="M 911.5 204.25  C 908.84 204.25  906.75 202.16  906.75 199.5  C 906.75 196.84  908.84 194.75  911.5 194.75  C 914.16 194.75  916.25 196.84  916.25 199.5  C 916.25 202.16  914.16 204.25  911.5 204.25  " fill-rule="nonzero" fill="#0066ff" stroke="none" />
</svg>