<?xml version="1.0" encoding="utf-8"?>
<svg version="1.1" xmlns:xlink="http://www.w3.org/1999/xlink" width="19px" height="19px" viewBox="902 343  19 19" xmlns="http://www.w3.org/2000/svg">
  <path d="M 911.5 343  C 916.82 343  921 347.18  921 352.5  C 921 357.82  916.82 362  911.5 362  C 906.18 362  902 357.82  902 352.5  C 902 347.18  906.18 343  911.5 343  Z " fill-rule="nonzero" fill="#f0f0f0" stroke="none" />
  <path d="M 911.5 343.5  C 916.54 343.5  920.5 347.46  920.5 352.5  C 920.5 357.54  916.54 361.5  911.5 361.5  C 906.46 361.5  902.5 357.54  902.5 352.5  C 902.5 347.46  906.46 343.5  911.5 343.5  Z " stroke-width="1" stroke="#0066ff" fill="none" />
  <path d="M 911.5 357.25  C 908.84 357.25  906.75 355.16  906.75 352.5  C 906.75 349.84  908.84 347.75  911.5 347.75  C 914.16 347.75  916.25 349.84  916.25 352.5  C 916.25 355.16  914.16 357.25  911.5 357.25  " fill-rule="nonzero" fill="#0066ff" stroke="none" />
</svg>