<?xml version="1.0" encoding="utf-8"?>
<svg version="1.1" xmlns:xlink="http://www.w3.org/1999/xlink" width="19px" height="19px" viewBox="902 424  19 19" xmlns="http://www.w3.org/2000/svg">
  <path d="M 911.5 424  C 916.82 424  921 428.18  921 433.5  C 921 438.82  916.82 443  911.5 443  C 906.18 443  902 438.82  902 433.5  C 902 428.18  906.18 424  911.5 424  Z " fill-rule="nonzero" fill="#f0f0f0" stroke="none" />
  <path d="M 911.5 424.5  C 916.54 424.5  920.5 428.46  920.5 433.5  C 920.5 438.54  916.54 442.5  911.5 442.5  C 906.46 442.5  902.5 438.54  902.5 433.5  C 902.5 428.46  906.46 424.5  911.5 424.5  Z " stroke-width="1" stroke="#0066ff" fill="none" />
  <path d="M 911.5 438.25  C 908.84 438.25  906.75 436.16  906.75 433.5  C 906.75 430.84  908.84 428.75  911.5 428.75  C 914.16 428.75  916.25 430.84  916.25 433.5  C 916.25 436.16  914.16 438.25  911.5 438.25  " fill-rule="nonzero" fill="#0066ff" stroke="none" />
</svg>