<?xml version="1.0" encoding="utf-8"?>
<svg version="1.1" xmlns:xlink="http://www.w3.org/1999/xlink" width="16px" height="16px" xmlns="http://www.w3.org/2000/svg">
  <g>
    <path d="M 14.01136363636365 1.988636363636374  C 13.655303030303049 1.6325757575757507  13.227272727272702 1.4545454545454504  12.727272727272748 1.4545454545454504  L 3.272727272727252 1.4545454545454504  C 2.772727272727252 1.4545454545454504  2.344696969696952 1.6325757575757507  1.9886363636363515 1.988636363636374  C 1.6325757575757507 2.3446969696969746  1.4545454545454504 2.7727272727272747  1.4545454545454504 3.2727272727272747  L 1.4545454545454504 12.727272727272725  C 1.4545454545454504 13.227272727272725  1.6325757575757507 13.655303030303026  1.9886363636363515 14.01136363636365  C 2.344696969696952 14.36742424242425  2.772727272727252 14.545454545454552  3.272727272727252 14.545454545454552  L 12.727272727272748 14.545454545454552  C 13.227272727272702 14.545454545454552  13.655303030303049 14.36742424242425  14.01136363636365 14.01136363636365  C 14.36742424242425 13.655303030303026  14.545454545454552 13.227272727272725  14.545454545454552 12.727272727272725  L 14.545454545454552 3.2727272727272747  C 14.545454545454552 2.7727272727272747  14.36742424242425 2.3446969696969746  14.01136363636365 1.988636363636374  Z M 15.0397727272727 0.9602272727272747  C 15.67992424242425 1.600378787878776  16 2.3712121212121247  16 3.2727272727272747  L 16 12.727272727272725  C 16 13.628787878787875  15.67992424242425 14.399621212121199  15.0397727272727 15.039772727272727  C 14.399621212121199 15.67992424242425  13.628787878787898 16  12.727272727272748 16  L 3.272727272727252 16  C 2.371212121212102 16  1.600378787878799 15.67992424242425  0.9602272727272521 15.039772727272727  C 0.3200757575757507 14.399621212121199  0 13.628787878787875  0 12.727272727272725  L 0 3.2727272727272747  C 0 2.3712121212121247  0.3200757575757507 1.600378787878776  0.9602272727272521 0.9602272727272747  C 1.600378787878799 0.3200757575757507  2.371212121212102 0  3.272727272727252 0  L 12.727272727272748 0  C 13.628787878787898 0  14.399621212121199 0.3200757575757507  15.0397727272727 0.9602272727272747  Z " fill-rule="nonzero" fill="#797979" stroke="none" />
  </g>
</svg>