<?xml version="1.0" encoding="utf-8"?>
<svg version="1.1" xmlns:xlink="http://www.w3.org/1999/xlink" width="16px" height="16px" xmlns="http://www.w3.org/2000/svg">
  <g>
    <path d="M 6.666666666666669 12.395833333333334  C 6.847222222222223 12.395833333333334  7.003472222222223 12.329861111111112  7.135416666666668 12.197916666666666  L 13.53125 5.802083333333334  C 13.663194444444446 5.6701388888888875  13.729166666666663 5.5138888888888875  13.729166666666663 5.333333333333334  C 13.729166666666663 5.152777777777777  13.663194444444446 4.996527777777777  13.53125 4.864583333333334  L 12.46875 3.802083333333334  C 12.336805555555554 3.6701388888888875  12.180555555555554 3.604166666666666  12 3.604166666666666  C 11.819444444444446 3.604166666666666  11.663194444444446 3.6701388888888875  11.53125 3.802083333333334  L 6.666666666666669 8.666666666666668  L 4.46875 6.46875  C 4.3368055555555545 6.336805555555555  4.1805555555555545 6.270833333333334  4 6.270833333333334  C 3.819444444444445 6.270833333333334  3.663194444444445 6.336805555555555  3.53125 6.46875  L 2.46875 7.53125  C 2.336805555555555 7.663194444444445  2.2708333333333317 7.819444444444445  2.2708333333333317 8  C 2.2708333333333317 8.180555555555554  2.336805555555555 8.336805555555554  2.46875 8.46875  L 6.197916666666669 12.197916666666666  C 6.329861111111109 12.329861111111112  6.486111111111109 12.395833333333334  6.666666666666669 12.395833333333334  Z M 15.119791666666664 0.8802083333333339  C 15.706597222222221 1.4670138888888875  16 2.173611111111109  16 3  L 16 13  C 16 13.82638888888889  15.706597222222221 14.53298611111111  15.119791666666664 15.119791666666666  C 14.532986111111107 15.706597222222221  13.826388888888891 16  13 16  L 3 16  C 2.173611111111109 16  1.4670138888888917 15.706597222222221  0.8802083333333317 15.119791666666666  C 0.29340277777777735 14.53298611111111  0 13.82638888888889  0 13  L 0 3  C 0 2.173611111111109  0.29340277777777735 1.4670138888888875  0.8802083333333317 0.8802083333333339  C 1.4670138888888917 0.2934027777777768  2.173611111111109 0  3 0  L 13 0  C 13.826388888888891 0  14.532986111111107 0.2934027777777768  15.119791666666664 0.8802083333333339  Z " fill-rule="nonzero" fill="#333333" stroke="none" />
  </g>
</svg>