<?xml version="1.0" encoding="utf-8"?>
<svg version="1.1" xmlns:xlink="http://www.w3.org/1999/xlink" width="19px" height="19px" viewBox="362 606  19 19" xmlns="http://www.w3.org/2000/svg">
  <path d="M 371.5 606  C 376.82 606  381 610.18  381 615.5  C 381 620.82  376.82 625  371.5 625  C 366.18 625  362 620.82  362 615.5  C 362 610.18  366.18 606  371.5 606  Z " fill-rule="nonzero" fill="#f0f0f0" stroke="none" />
  <path d="M 371.5 606.5  C 376.54 606.5  380.5 610.46  380.5 615.5  C 380.5 620.54  376.54 624.5  371.5 624.5  C 366.46 624.5  362.5 620.54  362.5 615.5  C 362.5 610.46  366.46 606.5  371.5 606.5  Z " stroke-width="1" stroke="#0066ff" fill="none" />
  <path d="M 371.5 620.25  C 368.84 620.25  366.75 618.16  366.75 615.5  C 366.75 612.84  368.84 610.75  371.5 610.75  C 374.16 610.75  376.25 612.84  376.25 615.5  C 376.25 618.16  374.16 620.25  371.5 620.25  " fill-rule="nonzero" fill="#0066ff" stroke="none" />
</svg>